//// ------------------------------------------------------
//// THIS FILE WAS AUTOMATICALLY GENERATED (DO NOT MODIFY)
//// ------------------------------------------------------

Project "Template" {
  database_type: 'PostgreSQL'
  Note: 'Consequat aliqua laborum aliquip amet dolore aliquip. Culpa mollit nulla quis quis. Culpa pariatur culpa mollit commodo minim officia anim ea nostrud. Labore in eiusmod minim minim magna laboris laborum tempor nulla culpa culpa. Nisi non eu laborum culpa consequat nisi incididunt aute aute. Exercitation ea duis mollit cillum.'
}

Table access {
  id String [pk]
  description String [not null]
  accessCode String [unique, not null]
  createdAt DateTime [default: `now()`, not null]
  createdBy String [not null]
  updatedAt DateTime [not null]
  updatedBy String [not null]
  structureOrder String [not null]
  active Boolean [not null, default: false]
  UserAccess user_access [not null]

  Note: 'Tabela de acessos'
}

Table User {
  id String [pk]
  name String [not null]
  email String [unique, not null]
  status UserStatus [not null, default: 'ACTIVE']
  AuthAttempt auth_attempts
  UserAccess user_access [not null]

  Note: 'User'
}

Table user_access {
  id String [pk]
  Access access [not null]
  accessId String [not null]
  Users User [not null]
  userId String [not null]
  allowAccess Boolean [not null]
  createdAt DateTime [default: `now()`, not null]
  createdBy String [not null]
  updatedAt DateTime [not null]
  updatedBy String [not null]

  Note: 'Acessos de usuários'
}

Table auth_attempts {
  id String [pk]
  User User [not null]
  userId String [unique, not null]
  attempts Int [not null, default: 0]
  lastAttempt DateTime [default: `now()`, not null]

  Note: 'Tabela de acessos'
}

Enum UserStatus {
  ACTIVE
  INACTIVE
  PENDING
  EXPIRED
}

Ref: user_access.accessId > access.id

Ref: user_access.userId > User.id

Ref: auth_attempts.userId - User.id